#tb 0: 1/25
#media_type 0: video
#codec_id 0: rawvideo
#dimensions 0: 352x288
#sar 0: 0/1
0,          0,          0,        1,   304128, 0x524bcfc6
0,          1,          1,        1,   304128, 0xab3a13af
0,          2,          2,        1,   304128, 0xac08d718
